<svg width="352" height="308" viewBox="0 0 352 308" fill="none" xmlns="http://www.w3.org/2000/svg">
<path d="M75.3718 115.302L6.54213 60.012L50.128 -21.8108L122.939 -35.8194L192.924 -25.1368L129.462 44.9137L124.631 70.3913L152.59 53.9054L190.48 -9.12543L227.803 -6.70525L255.478 9.53436L197.556 43.2924L167.961 89.0204L187.462 90.9048L214.564 49.1654L265.657 23.1033L289.217 35.4378L323.38 83.252L252.899 94.3395L227.54 112.315L313.569 98.1389L328.352 112.411L343.25 130.942L295.272 154.91L324.19 162.595L351.465 158.538L342.405 193.201L326.353 236.627L270.033 191.984L251.021 186.898L276.953 226.902L318.327 258.34L273.842 284.319L239.771 279.118L217.912 212.428L199.878 200.937L196.619 222.286L228.721 277.431L246.535 296.535L188.514 306.247L160.783 296.553L149.599 221.662L139.264 190.593L134.001 212.727L132.846 257.335L148.698 307.816L76.9775 302.33L16.1023 269.007L0.632634 209.846L4.23182 149.227L11.1172 134.986L52.5556 141.312L75.3718 115.302Z" fill="#F4F5F9"/>
</svg>
