<svg width="398" height="610" viewBox="0 0 398 610" fill="none" xmlns="http://www.w3.org/2000/svg">
<path d="M-228.903 205.647L-109.78 284.933L-49.3169 329.183C-49.3169 329.183 -13.0199 336.842 5.63448 325.457C24.2888 314.072 43.9076 319.489 43.9076 319.489L84.4309 352.722L123.347 357.954L182.572 332.574L223.839 351.111L258.428 356.665L326.153 335.207L397.89 345.463L334.649 277.202L287.974 246.719L267.391 224.502L167.321 211.048L134.334 164.935L68.2633 167.167L5.50223 130.944L-46.1873 143.444L-97.508 114.316L-124.341 127.379L-228.903 205.647Z" fill="#3BAF9E"/>
<path d="M-258 208.927L8.64467 215.593L110.313 243.178L260.165 273.481L333.444 308.763" stroke="#0091A4" stroke-width="4" stroke-linecap="round" stroke-linejoin="round"/>
</svg>
