<svg width="346" height="262" viewBox="0 0 346 262" fill="none" xmlns="http://www.w3.org/2000/svg">
<path d="M1.30048 16.1579L-76.971 -63.0625L-7.31295 -143.098L87.9547 -140.085L175.371 -110.28L82.389 -48.4481L71.8459 -21.2916L110.338 -32.5123L169.501 -93.0624L216.683 -80.8191L249.185 -55.6431L169.51 -32.8382L123.901 10.5513L148.447 17.6391L190.19 -21.9433L259.833 -37.9184L287.758 -18.1468L323.104 43.8754L231.311 38.204L195.878 51.7491L308.031 57.9559L324.43 77.6415L340.243 102.103L274.933 116.542L310.492 132.502L345.974 134.958L328.458 171.268L300.518 215.557L236.369 151.402L212.997 140.87L239.189 192.084L286.548 237.701L225.348 255.273L182.79 240.763L166.382 160.853L145.358 143.435L137.531 166.392L168.987 236.057L188.421 261.903L112.755 257.886L79.0554 239.989L77.672 153.67L69.8355 116.403L59.3164 139.724L50.1715 189.139L61.7066 249.45L-28.8169 224.992L-100.722 172.287L-110.276 102.401L-95.2608 35.7682L-84.0305 21.659L-32.2708 39.3067L1.30048 16.1579Z" fill="#72CBA0"/>
</svg>
