<svg width="592" height="324" viewBox="0 0 592 324" fill="none" xmlns="http://www.w3.org/2000/svg">
<path d="M-193.297 373.294L-177.382 438.799L-179.08 352.497L-166.58 316.701L-138.473 392.733L-138.248 290.548L-90.1897 234.552L-29.7723 300.806L-24.1404 205.016L-1.26764 180.189L25.5134 250.761L18.9586 166.121L48.8988 148.731L92.498 217.144L85.002 114.908L110.579 93.2785L149.789 207.079L137.872 86.6473L245.227 60.5647L234.188 149.961L310.732 44.6499L381.695 27.4089L350.948 75.3456L485.308 17.6511L502.908 34.5719L384.616 134.61L460.987 123.763L427.197 151.242L335.18 192.868L411.551 182.021L366.69 235.314L266.767 236.468L338.262 264.401L304.959 298.487L186.943 288.62L277.069 326.46L235.117 352.068L150.295 336.063L191.396 370.398L150.378 391.926L93.2924 371.109L106.302 409.745L31.068 440.183L-26.0691 427.087L15.0827 453.701L-25.9859 482.949L-91.388 483.423L-64.7415 505.854L-145.45 554.367L-179.477 549.146L-166.452 571.032L-197.929 592.168L-318.7 586.825L-275.927 437.69L-228.023 404.855L-193.297 373.294Z" fill="#F4F5F9"/>
</svg>
