<svg width="233" height="385" viewBox="0 0 233 385" fill="none" xmlns="http://www.w3.org/2000/svg">
<path d="M152.233 -232.458L100.243 -246.389L161.369 -214.539L181.671 -192.081L117.64 -201.503L189.161 -162.226L210.017 -107.13L140.478 -90.1788L205.45 -49.5629L214.098 -24.0388L154.399 -32.2993L216.219 -4.48733L216.953 23.1398L152.334 27.4849L226.843 61.3739L232.217 87.5677L137.472 71.4635L226.424 109.222L203.636 194.396L145.213 152.441L189.731 246.367L174.668 302.669L152.837 262.782L141.871 378.972L123.281 384.821L98.4281 263.675L76.8156 321.316L70.4847 287.13L76.5135 206.748L54.901 264.389L34.7161 212.566L72.1307 142.141L25.208 181.521L14.0609 145.147L66.1189 66.2687L5.12718 114.905L3.22965 75.7186L46.8912 22.4386L7.10885 38.08L7.71345 1.11108L44.1372 -30.9015L12.0867 -36.5808L19.5358 -100.925L50.5691 -135.93L16.1772 -117.297L11.3913 -157.257L36.0769 -203.245L10.1655 -193.169L7.04216 -268.268L23.7175 -290.101L3.39812 -289.357L0.627364 -319.495L50.5695 -402.034L138.715 -314.984L143.4 -268.862L152.233 -232.458Z" fill="#A2D79A"/>
</svg>
