<svg width="322" height="652" viewBox="0 0 322 652" fill="none" xmlns="http://www.w3.org/2000/svg">
<path d="M-284.719 228.979L-175.676 321.639L-120.796 372.65C-120.796 372.65 -85.6425 384.497 -65.7858 375.37C-45.9291 366.243 -27.0775 373.914 -27.0775 373.914L9.28546 411.654L47.3237 421.397L109.108 403.111L147.927 426.342L181.63 435.9L251.398 422.501L321.446 441.069L266.613 365.887L223.82 330.158L205.973 305.689L108.161 280.635L80.7866 230.984L14.9081 225.481L-43.191 182.173L-95.9869 188.549L-143.553 153.624L-171.728 163.463L-284.719 228.979Z" fill="#72D8C9"/>
<path d="M-314 228.835L-49.9604 266.61L47.7884 305.885L193.074 353.488L261.729 397.09" stroke="#0091A4" stroke-width="4" stroke-linecap="round" stroke-linejoin="round"/>
</svg>
