<svg width="233" height="388" viewBox="0 0 233 388" fill="none" xmlns="http://www.w3.org/2000/svg">
<path d="M152.233 -229.458L100.243 -243.389L161.369 -211.539L181.671 -189.081L117.64 -198.503L189.161 -159.226L210.017 -104.13L140.478 -87.1788L205.45 -46.5629L214.098 -21.0388L154.399 -29.2993L216.219 -1.48733L216.953 26.1398L152.334 30.4849L226.843 64.3739L232.217 90.5677L137.472 74.4635L226.424 112.222L203.636 197.396L145.213 155.441L189.731 249.367L174.668 305.669L152.837 265.782L141.871 381.972L123.281 387.821L98.4281 266.675L76.8156 324.316L70.4847 290.13L76.5135 209.748L54.901 267.389L34.7161 215.566L72.1307 145.141L25.208 184.521L14.0609 148.147L66.1189 69.2687L5.12718 117.905L3.22965 78.7186L46.8912 25.4386L7.10885 41.08L7.71345 4.11108L44.1372 -27.9015L12.0867 -33.5808L19.5358 -97.9255L50.5691 -132.93L16.1772 -114.297L11.3913 -154.257L36.0769 -200.245L10.1655 -190.169L7.04216 -265.268L23.7175 -287.101L3.39812 -286.357L0.627364 -316.495L50.5695 -399.034L138.715 -311.984L143.4 -265.862L152.233 -229.458Z" fill="black" fill-opacity="0.04"/>
</svg>
