<svg width="576" height="384" viewBox="0 0 576 384" fill="none" xmlns="http://www.w3.org/2000/svg">
<path d="M-209.297 373.294L-193.382 438.799L-195.08 352.497L-182.58 316.701L-154.473 392.733L-154.248 290.548L-106.19 234.552L-45.7723 300.806L-40.1404 205.016L-17.2676 180.189L9.51337 250.761L2.95862 166.121L32.8988 148.731L76.498 217.144L69.002 114.908L94.5785 93.2785L133.789 207.079L121.872 86.6473L229.227 60.5647L218.188 149.961L294.732 44.6499L365.695 27.4089L334.948 75.3456L469.308 17.6511L486.908 34.5719L368.616 134.61L444.987 123.763L411.197 151.242L319.18 192.868L395.551 182.021L350.69 235.314L250.767 236.468L322.262 264.401L288.959 298.487L170.943 288.62L261.069 326.46L219.117 352.068L134.295 336.063L175.396 370.398L134.378 391.926L77.2924 371.109L90.3019 409.745L15.068 440.183L-42.0691 427.087L-0.917285 453.701L-41.9859 482.949L-107.388 483.423L-80.7415 505.854L-161.45 554.367L-195.477 549.146L-182.452 571.032L-213.929 592.168L-334.7 586.825L-291.927 437.69L-244.023 404.855L-209.297 373.294Z" fill="#318670"/>
</svg>
